:SAMPLES-PER-SECOND 30
:FULLY-SPECIFIED
:DEGREES
696
root  82.3335 38.7171 7.47968 -173.508 -49.3315 171.544
RightUpLeg  -3.76929 -47.8442 -12.7438
RightLeg  34.3563 -17.2994 -12.5525
RightFoot  -7.39327 -0.452553 13.5973
RightToes  3.49245e-010 0 -3.6325e-017
Spine  6.9049 0.843094 0.859387
Spine1  0.898729 1.11446 -1.53432
HEad  -4.7114 -24.055 -0.546123
LeftShoulder1  -0.828816 5.53979 -34.5158
LeftArm  -3.77133 11.6217 -37.4769
LeftForeArm  28.2442 -10.5786 -7.68946
LeftHand  -1.37133 22.8848 -7.84943
RightShoulder  -0.706274 -5.52861 28.2142
RightArm  25.7631 -4.86756 43.7844
RightForeArm  6.53594 19.5743 5.10833
RightHand  -0.278075 6.6888 -2.99786
LeftUpLeg  -9.65615 8.42106 -4.17539
LeftLeg  13.3977 26.3504 1.892
LeftFoot  -3.31829 -0.341626 5.15306
LeftToes  -5.6298e-010 8.41567e-011 -1.83319e-011
697
root  82.1616 38.6343 7.42606 -173.735 -53.1947 171.166
RightUpLeg  -7.4795 -39.821 -13.0074
RightLeg  43.5032 -13.6485 -13.6495
RightFoot  -1.3443 -0.570478 6.10314
RightToes  3.49245e-010 0 -3.6325e-017
Spine  7.23993 0.964995 1.6572
Spine1  1.80172 1.43881 -2.46619
HEad  -5.53378 -25.89 -0.483068
LeftShoulder1  -0.825075 5.57168 -33.7403
LeftArm  -5.52126 12.0031 -39.0548
LeftForeArm  27.1982 -10.4137 -7.24624
LeftHand  -0.810635 22.7532 -4.30692
RightShoulder  -0.645634 -5.36585 27.9568
RightArm  22.5784 -3.74464 43.631
RightForeArm  7.98977 19.1148 5.00134
RightHand  -0.285327 6.49255 -3.12946
LeftUpLeg  -9.41638 9.50846 -4.44505
LeftLeg  14.2718 21.6629 1.60074
LeftFoot  -3.98419 -0.329437 5.49721
LeftToes  -5.6298e-010 8.41567e-011 -1.83319e-011
698
root  82.1 38.4452 7.21437 -173.142 -55.6329 169.984
RightUpLeg  -9.89814 -31.2841 -13.5947
RightLeg  48.2216 -5.31573 -6.64099
RightFoot  -0.235247 -0.454646 4.64453
RightToes  3.49245e-010 0 -3.6325e-017
Spine  5.07077 1.19273 1.31416
Spine1  6.15674 1.95742 -4.2139
HEad  -7.45253 -26.2401 0.988199
LeftShoulder1  -0.866818 5.77425 -32.0195
LeftArm  -7.78724 11.9289 -41.0895
LeftForeArm  29.8259 -10.1951 -6.49983
LeftHand  -0.38769 19.66 -2.74052
RightShoulder  -0.476536 -4.90421 27.1408
RightArm  17.4617 -1.11898 45.3609
RightForeArm  12.1641 17.3859 4.94742
RightHand  -0.241016 6.84102 -2.63465
LeftUpLeg  -9.69943 10.2693 -4.585
LeftLeg  16.2472 18.4775 1.33119
LeftFoot  -4.98168 -0.284936 5.65857
LeftToes  -5.6298e-010 8.41567e-011 -1.83319e-011
699
root  82.0811 38.2928 7.00514 -172 -59.2953 168.437
RightUpLeg  -10.9279 -24.0634 -13.9266
RightLeg  49.6027 3.17638 3.56331
RightFoot  -3.15039 -0.538952 7.36412
RightToes  3.49245e-010 0 -3.6325e-017
Spine  4.19222 0.458747 1.2602
Spine1  8.63311 1.60674 -6.33935
HEad  -8.08807 -25.7286 2.63309
LeftShoulder1  -0.837265 5.79118 -30.4195
LeftArm  -10.2509 12.3214 -41.127
LeftForeArm  36.5577 -7.23537 -5.65
LeftHand  -0.304922 14.8964 -4.68132
RightShoulder  -0.270724 -4.30857 26.3307
RightArm  12.1569 1.0513 46.6418
RightForeArm  16.139 15.9352 4.59737
RightHand  -0.315232 6.70332 -3.36679
LeftUpLeg  -10.3004 9.98076 -5.14022
LeftLeg  17.9411 15.2471 1.50188
LeftFoot  -5.5235 -0.254255 5.66124
LeftToes  -5.6298e-010 8.41567e-011 -1.83319e-011
700
root  81.9741 38.2708 6.71825 -171.224 -62.9809 167.705
RightUpLeg  -11.196 -17.1349 -13.0309
RightLeg  48.1026 2.99038 3.28744
RightFoot  -5.6068 -0.561031 10.232
RightToes  3.49245e-010 0 -3.6325e-017
Spine  5.12038 0.570465 0.50942
Spine1  7.45201 1.42438 -5.59349
HEad  -8.06644 -26.9519 2.81146
LeftShoulder1  -0.726773 5.51416 -29.998
LeftArm  -15.0142 11.79 -38.8981
LeftForeArm  20.6314 -5.89987 -2.78947
LeftHand  -0.112823 29.7285 0.706292
RightShoulder  -0.25055 -4.2667 25.5063
RightArm  9.35366 0.923882 44.4241
RightForeArm  16.37 16.136 4.07679
RightHand  -0.339602 7.13566 -3.50024
LeftUpLeg  -10.2914 9.46781 -4.99425
LeftLeg  18.1357 12.2671 1.08646
LeftFoot  -5.56967 -0.27554 6.12782
LeftToes  -5.6298e-010 8.41567e-011 -1.83319e-011
701
root  81.8626 38.4588 6.46469 -171.043 -66.5697 167.555
RightUpLeg  -10.5204 -11.2655 -11.9532
RightLeg  43.31 -0.772305 -1.02744
RightFoot  -7.15746 -0.333766 7.71471
RightToes  3.49245e-010 0 -3.6325e-017
Spine  7.72962 0.75559 0.158811
Spine1  3.73319 1.24061 -3.96749
HEad  -7.41497 -28.8111 1.59745
LeftShoulder1  -0.680982 5.41912 -29.3555
LeftArm  -14.5267 11.6322 -36.2145
LeftForeArm  18.9695 -6.12817 -2.93468
LeftHand  0.557747 24.4484 4.10121
RightShoulder  -0.33013 -4.53451 24.9205
RightArm  7.88713 0.325606 40.2542
RightForeArm  15.1115 16.4254 3.78561
RightHand  -0.326052 7.33336 -3.33116
LeftUpLeg  -9.13424 7.82072 -4.43485
LeftLeg  16.2059 10.275 0.483046
LeftFoot  -4.52538 -0.319327 5.82004
LeftToes  -5.6298e-010 8.41567e-011 -1.83319e-011
702
root  81.7295 38.6108 6.17666 -169.576 -70.2217 166.752
RightUpLeg  -9.93203 -5.56029 -11.0618
RightLeg  36.5847 -4.69249 -3.98197
RightFoot  -9.24292 -0.164488 5.62626
RightToes  3.49245e-010 0 -3.6325e-017
Spine  8.4188 0.726948 -0.212217
Spine1  1.15475 0.962172 -2.60024
HEad  -6.5463 -30.5226 1.1931
LeftShoulder1  -0.504996 4.98215 -27.9967
LeftArm  -12.7003 11.0076 -33.6059
LeftForeArm  23.5572 -6.80439 -3.87105
LeftHand  0.317452 13.4631 4.65261
RightShoulder  -0.263858 -4.35889 23.5711
RightArm  6.15371 -0.196534 36.1186
RightForeArm  14.6317 15.6864 3.49186
RightHand  -0.294851 6.72849 -3.16988
LeftUpLeg  -8.80206 6.44899 -4.14109
LeftLeg  14.4362 7.93355 -0.0322396
LeftFoot  -3.6134 -0.34977 5.49428
LeftToes  -5.6298e-010 8.41567e-011 -1.83319e-011
703
root  81.663 38.664 5.81805 -167.991 -73.3014 165.249
RightUpLeg  -8.93901 2.08731 -10.4775
RightLeg  29.0464 -6.24822 -4.04825
RightFoot  -10.4341 -0.110397 5.12025
RightToes  3.49245e-010 0 -3.6325e-017
Spine  8.34296 0.551218 -0.730724
Spine1  0.92986 0.650663 -1.84959
HEad  -6.60205 -31.2778 1.05063
LeftShoulder1  -0.405858 4.77322 -25.6965
LeftArm  -14.1923 10.0022 -30.8828
LeftForeArm  25.1474 -6.44774 -2.72555
LeftHand  -0.0698035 6.47521 -0.505241
RightShoulder  -0.165413 -4.06341 21.8257
RightArm  3.53253 0.679416 32.6443
RightForeArm  14.0808 13.7063 2.96764
RightHand  -0.232892 7.42361 -2.47111
LeftUpLeg  -8.42951 5.88764 -3.74861
LeftLeg  13.667 5.40901 -0.445045
LeftFoot  -3.1818 -0.36334 5.35835
LeftToes  -5.6298e-010 8.41567e-011 -1.83319e-011
704
root  81.5735 38.6885 5.46167 -165.052 -75.872 162.52
RightUpLeg  -8.38432 9.29009 -10.5215
RightLeg  21.5353 -3.7772 -1.86018
RightFoot  -10.1773 -0.124542 5.77091
RightToes  3.49245e-010 0 -3.6325e-017
Spine  9.10343 0.409463 -0.743738
Spine1  -1.23731 0.557103 -1.95041
HEad  -5.57887 -32.1137 0.756454
LeftShoulder1  -0.202632 4.18045 -23.4533
LeftArm  -14.9615 9.33964 -26.9858
LeftForeArm  22.5945 -6.16115 -2.10285
LeftHand  -0.0220809 5.14321 -0.819054
RightShoulder  -0.042283 -3.63514 20.3442
RightArm  1.24022 0.585947 28.278
RightForeArm  11.7365 11.5203 2.23282
RightHand  -0.21168 8.05832 -2.19525
LeftUpLeg  -8.36119 5.40011 -3.62227
LeftLeg  13.227 3.25555 -0.662502
LeftFoot  -2.95093 -0.353964 5.06792
LeftToes  -5.6298e-010 8.41567e-011 -1.83319e-011
705
root  81.4404 38.759 5.12595 -161.061 -78.0003 158.485
RightUpLeg  -8.28701 13.0705 -10.6026
RightLeg  18.2754 -1.40188 -0.699017
RightFoot  -9.00309 -0.154465 4.49269
RightToes  3.49245e-010 0 -3.6325e-017
Spine  10.2158 0.302092 -0.272017
Spine1  -3.96384 0.568281 -2.49708
HEad  -3.94268 -33.6176 0.110053
LeftShoulder1  0.0514641 3.32104 -21.3156
LeftArm  -14.8093 8.78109 -22.5988
LeftForeArm  20.1042 -6.89753 -2.251
LeftHand  -0.0279297 7.34802 0.837046
RightShoulder  0.0780788 -3.17522 18.9586
RightArm  -0.655182 0.0675479 23.5041
RightForeArm  9.20378 9.50121 1.37333
RightHand  -0.17728 7.71572 -1.93646
LeftUpLeg  -7.62438 4.65089 -3.68226
LeftLeg  12.0914 1.58924 -0.73062
LeftFoot  -2.36507 -0.36378 4.81047
LeftToes  -5.6298e-010 8.41567e-011 -1.83319e-011
706
root  81.3457 38.7473 4.75576 -157.367 -79.0418 154.402
RightUpLeg  -8.1543 10.9336 -10.4215
RightLeg  19.9509 -0.779709 -0.521104
RightFoot  -9.2477 -0.136448 4.21878
RightToes  3.49245e-010 0 -3.6325e-017
Spine  12.152 0.560834 -0.0802704
Spine1  -7.2913 0.876186 -3.34165
HEad  -1.94629 -34.3153 -1.74012
LeftShoulder1  0.217892 2.66605 -19.4777
LeftArm  -14.5546 8.31225 -18.02
LeftForeArm  18.1124 -8.2558 -2.49319
LeftHand  -0.0230937 7.17544 0.863015
RightShoulder  0.171235 -2.78282 17.9279
RightArm  -1.2365 -0.342845 18.4261
RightForeArm  7.37174 8.60968 0.974503
RightHand  -0.209016 7.85614 -2.19935
LeftUpLeg  -7.00332 4.49279 -3.62774
LeftLeg  11.9714 0.396337 -0.790835
LeftFoot  -2.32096 -0.338373 4.47038
LeftToes  -5.6298e-010 8.41567e-011 -1.83319e-011
